<svg width="24" height="24" viewBox="0 0 24 24" fill="none" xmlns="http://www.w3.org/2000/svg">
  <path fill-rule="evenodd" clip-rule="evenodd" d="M12 0.296875C5.373 0.296875 0 5.67 0 12.2979C0 17.6298 3.438 22.0463 8.207 23.5423C8.805 23.6473 9.025 23.2798 9.025 22.9698C9.025 22.6898 9.015 22.1293 9.01 21.2283C5.672 21.8963 4.968 19.7693 4.968 19.7693C4.421 18.3173 3.633 17.9373 3.633 17.9373C2.545 17.2193 3.712 17.2333 3.712 17.2333C4.921 17.3213 5.553 18.4683 5.553 18.4683C6.594 20.2733 8.272 19.8033 8.897 19.5683C8.999 18.7933 9.31 18.2683 9.658 17.9683C7.054 17.6613 4.344 16.6073 4.344 11.9453C4.344 10.5583 4.844 9.44326 5.654 8.60826C5.524 8.30126 5.104 7.02326 5.754 5.29926C5.754 5.29926 6.805 4.95226 8.984 6.50426C9.984 6.21526 11.064 6.07126 12.144 6.06526C13.224 6.07126 14.304 6.21526 15.304 6.50426C17.483 4.95226 18.534 5.29926 18.534 5.29926C19.184 7.02326 18.764 8.30126 18.634 8.60826C19.444 9.44326 19.944 10.5583 19.944 11.9453C19.944 16.6233 17.231 17.6533 14.615 17.9513C15.039 18.3283 15.424 19.0863 15.424 20.1703C15.424 21.8073 15.41 22.6073 15.41 22.9698C15.41 23.2798 15.628 23.6523 16.23 23.5423C21.001 22.0463 24.438 17.6298 24.438 12.2979C24.438 5.67 19.064 0.296875 12 0.296875Z" fill="#FFFFFF"/>
</svg>
